<svg xmlns="http://www.w3.org/2000/svg" width="65" height="66" viewBox="0 0 65 66" fill="none">
  <path d="M24.1445 59.7281H40.2193C53.6149 59.7281 58.9732 54.3698 58.9732 40.9742V24.8994C58.9732 11.5038 53.6149 6.14551 40.2193 6.14551H24.1445C10.7489 6.14551 5.39062 11.5038 5.39062 24.8994V40.9742C5.39063 54.3698 10.7489 59.7281 24.1445 59.7281Z" stroke="#9083D5" stroke-width="2" stroke-linecap="round" stroke-linejoin="round"/>
  <path d="M5.39062 34.8121L21.4654 34.7585C23.4747 34.7585 25.7252 36.2856 26.4754 38.161L29.5296 45.8769C30.2261 47.6183 31.3246 47.6183 32.0212 45.8769L38.1564 30.3111C38.7458 28.8108 39.8442 28.7573 40.5944 30.1772L43.3807 35.4551C44.2112 37.0358 46.3545 38.3217 48.1227 38.3217H59" stroke="#9083D5" stroke-width="2" stroke-linecap="round" stroke-linejoin="round"/>
</svg>