<svg xmlns="http://www.w3.org/2000/svg" width="65" height="65" viewBox="0 0 65 65" fill="none">
  <g clip-path="url(#clip0_380_1060)">
    <path d="M62.5091 27.5813C61.0861 26.4701 59.2654 26.0837 57.514 26.522L55.3391 27.0657C54.9616 25.3669 54.3988 23.7318 53.6655 22.1827L57.5674 19.93C58.4683 19.4098 58.777 18.2578 58.2568 17.3567C57.7367 16.4558 56.5848 16.1467 55.6836 16.6673L51.7795 18.9213C50.8044 17.515 49.6695 16.2108 48.3863 15.0326L49.9479 13.4175C51.2029 12.1195 51.7788 10.3497 51.5282 8.56184C51.2775 6.77377 50.2369 5.23072 48.6735 4.32815C47.11 3.42532 45.2534 3.29585 43.5796 3.97274C41.9058 4.64964 40.6613 6.0332 40.1647 7.76903L39.5526 9.90835C37.9029 9.3912 36.2078 9.06279 34.4824 8.9244V4.42673C34.4824 3.38639 33.639 2.54297 32.5986 2.54297C31.5583 2.54297 30.7149 3.38639 30.7149 4.42673V8.9244C28.9895 9.06279 27.2945 9.39132 25.6447 9.90835L25.0326 7.76903C24.536 6.03333 23.2913 4.64952 21.6177 3.97274C19.9441 3.29585 18.0874 3.42557 16.5237 4.32815C14.9602 5.23085 13.9197 6.7739 13.6691 8.56171C13.4184 10.3495 13.9943 12.1194 15.2493 13.4174L16.8109 15.0324C15.5277 16.2108 14.3928 17.5149 13.4178 18.9211L9.51375 16.6672C8.61269 16.1467 7.46058 16.4557 6.94054 17.3566C6.42037 18.2577 6.72905 19.4098 7.62999 19.9298L11.5319 22.1826C10.7985 23.7316 10.2357 25.3668 9.85823 27.0655L7.68324 26.5219C5.93147 26.0836 4.11113 26.4701 2.68813 27.5812C1.26539 28.6925 0.449219 30.365 0.449219 32.1704C0.449219 33.9758 1.26539 35.6483 2.68838 36.7595C4.11138 37.8707 5.93222 38.2568 7.68349 37.8188L9.85836 37.2751C10.2359 38.9739 10.7987 40.609 11.5321 42.1581L7.63012 44.4108C6.72918 44.931 6.42049 46.083 6.94066 46.984C7.28953 47.5884 7.92273 47.9263 8.57376 47.9263C8.89324 47.9263 9.21725 47.8449 9.51388 47.6735L13.4179 45.4195C14.3928 46.8258 15.5277 48.13 16.8109 49.3082L15.2492 50.9232C13.9942 52.2213 13.4183 53.9911 13.6691 55.7789C13.9199 57.5668 14.9603 59.1098 16.5239 60.0125C17.4254 60.5332 18.4244 60.7965 19.4298 60.7965C20.1677 60.7964 20.9093 60.6544 21.6178 60.3679C23.2915 59.691 24.5361 58.3075 25.0327 56.5716L25.6448 54.4323C27.2945 54.9495 28.9896 55.2779 30.715 55.4163V59.9139C30.715 60.9543 31.5584 61.7977 32.5988 61.7977C33.6391 61.7977 34.4825 60.9543 34.4825 59.9139V55.4163C36.2079 55.2779 37.9029 54.9493 39.5527 54.4323L40.1648 56.5716C40.6614 58.3073 41.9059 59.6911 43.5796 60.3679C45.2535 61.0447 47.11 60.9151 48.6736 60.0125C50.2372 59.1098 51.2776 57.5668 51.5283 55.7789C51.779 53.9911 51.203 52.2213 49.9481 50.9232L48.3863 49.3082C49.6695 48.1299 50.8044 46.8257 51.7793 45.4195L55.6834 47.6735C55.98 47.8448 56.3039 47.9263 56.6235 47.9263C57.2745 47.9263 57.9078 47.5884 58.2566 46.984C58.7768 46.083 58.4681 44.9309 57.5671 44.4108L53.6651 42.1581C54.3985 40.609 54.9613 38.9739 55.3389 37.2751L57.5139 37.8188C59.2654 38.2568 61.0859 37.8704 62.509 36.7595C63.9321 35.6483 64.7483 33.9758 64.7483 32.1704C64.7483 30.365 63.9321 28.6925 62.5091 27.5813ZM60.1906 33.7899C59.6885 34.182 59.0459 34.3184 58.4278 34.1639L54.2924 33.1301C53.7711 32.9996 53.2188 33.0983 52.7747 33.4009C52.3307 33.7035 52.0369 34.1815 51.9676 34.7145C51.2952 39.8805 48.6368 44.4824 44.482 47.6727C44.0562 47.9998 43.7902 48.4928 43.7506 49.0282C43.7112 49.5637 43.902 50.0904 44.2751 50.4763L47.2397 53.5424C47.6825 54.0004 47.8859 54.6251 47.7973 55.256C47.7088 55.887 47.3416 56.4315 46.7898 56.7501C46.2381 57.0686 45.5828 57.1143 44.9921 56.8754C44.4015 56.6367 43.9622 56.1483 43.787 55.5358L42.6199 51.4555C42.4722 50.9389 42.1109 50.5102 41.6271 50.2767C41.1431 50.0434 40.5828 50.0277 40.0866 50.2337C37.7025 51.2233 35.1833 51.725 32.5989 51.725C30.0145 51.725 27.4954 51.2233 25.1112 50.2337C24.6151 50.0275 24.0545 50.0431 23.5706 50.2767C23.0868 50.5101 22.7256 50.9388 22.5779 51.4555L21.4107 55.5358C21.2354 56.1483 20.7962 56.6367 20.2056 56.8754C19.615 57.1144 18.9597 57.0688 18.4079 56.7501C17.8561 56.4315 17.489 55.887 17.4004 55.256C17.3119 54.6252 17.5152 54.0006 17.958 53.5424L20.9228 50.4763C21.2959 50.0904 21.4867 49.5635 21.4473 49.0282C21.4077 48.4928 21.1416 47.9998 20.7159 47.6727C16.561 44.4825 13.9027 39.8805 13.2303 34.7145C13.161 34.1815 12.8672 33.7035 12.4232 33.4009C12.1074 33.1857 11.7372 33.0738 11.3622 33.0738C11.2096 33.0738 11.0562 33.0923 10.9054 33.1301L6.76999 34.1639C6.15174 34.3181 5.50925 34.1823 5.00717 33.7899C4.50471 33.3977 4.21674 32.8075 4.21674 32.1704C4.21674 31.5333 4.50471 30.9431 5.00692 30.5509C5.50913 30.1588 6.15149 30.0224 6.76974 30.1769L10.9051 31.2107C11.4265 31.3414 11.9788 31.2426 12.4228 30.9399C12.8668 30.6373 13.1606 30.1593 13.2299 29.6263C13.9023 24.4602 16.5608 19.8583 20.7156 16.668C21.1413 16.341 21.4074 15.8481 21.447 15.3126C21.4866 14.7772 21.2958 14.2504 20.9226 13.8645L17.958 10.7985C17.5151 10.3405 17.3118 9.71583 17.4003 9.08477C17.4888 8.45396 17.8559 7.90943 18.4077 7.59082C18.9596 7.27222 19.6146 7.2265 20.2054 7.46549C20.796 7.70422 21.2353 8.19262 21.4105 8.80509L22.5776 12.8854C22.7253 13.402 23.0866 13.8307 23.5704 14.0642C24.0544 14.2975 24.6147 14.3132 25.1109 14.1073C27.495 13.1177 30.0142 12.6159 32.5986 12.6159C35.183 12.6159 37.7021 13.1177 40.0863 14.1073C40.5823 14.3132 41.1429 14.2976 41.6269 14.0642C42.1107 13.8308 42.4719 13.4021 42.6196 12.8854L43.7868 8.80509C43.9621 8.19262 44.4013 7.70422 44.9919 7.46549C45.5826 7.22675 46.2378 7.27234 46.7896 7.59082C47.3414 7.90943 47.7085 8.45396 47.7971 9.08477C47.8856 9.71571 47.6823 10.3404 47.2395 10.7985L44.2748 13.8646C43.9016 14.2505 43.7108 14.7775 43.7504 15.3127C43.7898 15.8482 44.056 16.3411 44.4818 16.6682C48.6366 19.8583 51.2951 24.4603 51.9675 29.6264C52.0368 30.1594 52.3305 30.6374 52.7746 30.94C53.2188 31.2427 53.7711 31.3414 54.2923 31.2108L58.4276 30.177C59.0456 30.0227 59.6882 30.1587 60.1905 30.551C60.6928 30.9431 60.9808 31.5333 60.9808 32.1704C60.9808 32.8075 60.6928 33.3977 60.1906 33.7899Z" fill="#9083D5"/>
    <path d="M36.7383 37.1938C36.7383 34.6299 38.8257 32.5425 41.3896 32.5425C43.9534 32.5425 46.0409 34.6299 46.0409 37.1938C46.0409 39.7576 43.9534 41.8451 41.3896 41.8451C38.8257 41.8451 36.7383 39.7576 36.7383 37.1938ZM38.5058 37.1938C38.5058 38.7848 39.7986 40.0775 41.3896 40.0775C42.9806 40.0775 44.2733 38.7848 44.2733 37.1938C44.2733 35.6028 42.9806 34.31 41.3896 34.31C39.7986 34.31 38.5058 35.6028 38.5058 37.1938Z" fill="#9083D5" stroke="#9083D5" stroke-width="2"/>
    <path d="M19.1562 28.4027C19.1562 25.1464 21.8071 22.4956 25.0634 22.4956C28.3197 22.4956 30.9705 25.1464 30.9705 28.4027C30.9705 31.659 28.3197 34.3099 25.0634 34.3099C21.8071 34.3099 19.1562 31.659 19.1562 28.4027ZM20.9238 28.4027C20.9238 30.6862 22.7799 32.5423 25.0634 32.5423C27.3468 32.5423 29.203 30.6862 29.203 28.4027C29.203 26.1193 27.3468 24.2631 25.0634 24.2631C22.7799 24.2631 20.9238 26.1193 20.9238 28.4027Z" fill="#9083D5" stroke="#9083D5" stroke-width="2"/>
  </g>
  <defs>
    <clipPath id="clip0_380_1060">
      <rect width="64.2991" height="64.2991" fill="white" transform="translate(0.449219 0.0205078)"/>
    </clipPath>
  </defs>
</svg>