<svg xmlns="http://www.w3.org/2000/svg" width="65" height="65" viewBox="0 0 65 65" fill="none">
  <g clip-path="url(#clip0_380_1044)">
    <path d="M61.0752 11.7775C59.3626 6.44209 55.7116 2.52638 51.0583 1.03419C42.4794 -1.71686 35.425 1.82034 32.7318 3.51372C30.0383 1.82022 22.9837 -1.71686 14.4053 1.03419C9.7507 2.52675 6.09934 6.44397 4.38725 11.7814C2.13591 18.8001 3.58979 26.7509 8.27684 33.0497C10.3146 35.7886 11.6924 38.8079 12.3718 42.024C12.6735 43.4529 12.9359 45.0249 13.1514 46.6967C13.7985 51.7172 14.7516 55.7467 15.9843 58.6731C17.4609 62.1788 19.3659 64.072 21.6463 64.3001C21.7761 64.313 21.9044 64.3194 22.0318 64.3194C24.2763 64.3193 26.1521 62.3049 27.6114 58.3235C28.6903 55.3802 29.5407 51.4362 30.0063 47.2179C30.2665 44.8591 30.8752 42.9493 31.7663 41.6947C32.0855 41.2456 32.548 41.1971 32.732 41.1971C32.9159 41.1971 33.3785 41.2456 33.6976 41.6948C34.5887 42.9493 35.1974 44.8591 35.4576 47.218C35.9232 51.4362 36.7736 55.3803 37.8525 58.3237C39.3118 62.3052 41.1874 64.3197 43.4321 64.3195C43.5595 64.3195 43.688 64.313 43.8176 64.3002C46.098 64.0721 48.003 62.179 49.4796 58.6733C50.7122 55.7468 51.6654 51.7173 52.3125 46.6968C52.528 45.0248 52.7904 43.4529 53.092 42.0248C53.7709 38.8113 55.1507 35.789 57.1931 33.0418C61.876 26.743 63.3273 18.7937 61.0752 11.7775ZM54.1772 30.7996C51.8091 33.9851 50.2069 37.5004 49.4151 41.2481C49.0927 42.7737 48.8135 44.4454 48.5852 46.2165C47.2679 56.4356 44.8134 60.3803 43.4673 60.5579C43.1846 60.4578 42.2176 59.5283 41.178 56.4528C40.2969 53.8467 39.5921 50.4206 39.1931 46.8057C38.8582 43.77 38.04 41.3182 36.7613 39.5183C35.8364 38.2163 34.33 37.4389 32.7318 37.4389C31.1337 37.4389 29.6273 38.2161 28.7022 39.5184C27.4235 41.3184 26.6055 43.7702 26.2704 46.8058C25.8714 50.4208 25.1667 53.8468 24.2857 56.4529C23.2461 59.5284 22.279 60.458 21.9963 60.558C20.6503 60.3805 18.1956 56.4357 16.8783 46.2166C16.65 44.4459 16.3709 42.774 16.0484 41.2475C15.2561 37.4968 13.6556 33.9841 11.2916 30.8067C7.3273 25.4788 6.08415 18.7957 7.96577 12.9295C9.30262 8.76175 12.068 5.73053 15.5528 4.61308C19.2317 3.43322 23.0252 3.50882 26.8279 4.8375C29.7324 5.85247 31.555 7.25638 31.5686 7.26693L32.7291 8.17427L33.8905 7.27044C33.9086 7.25638 35.7312 5.85247 38.6357 4.8375C42.4384 3.5087 46.2318 3.43322 49.9107 4.61308H49.9109C53.3946 5.73015 56.1597 8.76025 57.4969 12.9262C59.379 18.7901 58.1381 25.4718 54.1772 30.7996Z" fill="#9083D5"/>
  </g>
  <defs>
    <clipPath id="clip0_380_1044">
      <rect width="64.2991" height="64.2991" fill="white" transform="translate(0.582031 0.0205078)"/>
    </clipPath>
  </defs>
</svg>