<svg xmlns="http://www.w3.org/2000/svg" width="66" height="65" viewBox="0 0 66 65" fill="none">
  <g clip-path="url(#clip0_1096_395)">
    <path d="M17.0608 10.7368H14.3817C12.9606 10.7368 11.5977 11.3013 10.5928 12.3062C9.58797 13.3111 9.02344 14.674 9.02344 16.0951V25.472C9.02344 29.38 10.5759 33.128 13.3393 35.8914C16.1027 38.6548 19.8506 40.2072 23.7586 40.2072C27.6667 40.2072 31.4146 38.6548 34.178 35.8914C36.9414 33.128 38.4938 29.38 38.4938 25.472V16.0951C38.4938 14.674 37.9293 13.3111 36.9244 12.3062C35.9196 11.3013 34.5567 10.7368 33.1356 10.7368H30.4565" stroke="#9083D5" stroke-width="2" stroke-linecap="round" stroke-linejoin="round"/>
    <path d="M22.418 40.2073C22.418 42.3183 22.8338 44.4086 23.6416 46.3588C24.4494 48.3091 25.6335 50.0812 27.1262 51.5739C28.6188 53.0666 30.3909 54.2506 32.3412 55.0584C34.2915 55.8663 36.3818 56.2821 38.4927 56.2821C40.6037 56.2821 42.694 55.8663 44.6443 55.0584C46.5946 54.2506 48.3666 53.0666 49.8593 51.5739C51.352 50.0812 52.536 48.3091 53.3439 46.3588C54.1517 44.4086 54.5675 42.3183 54.5675 40.2073V32.1699" stroke="#9083D5" stroke-width="2" stroke-linecap="round" stroke-linejoin="round"/>
    <path d="M30.4531 8.05811V13.4164" stroke="#9083D5" stroke-width="2" stroke-linecap="round" stroke-linejoin="round"/>
    <path d="M17.0586 8.05811V13.4164" stroke="#9083D5" stroke-width="2" stroke-linecap="round" stroke-linejoin="round"/>
    <path d="M54.5653 32.1701C57.5246 32.1701 59.9235 29.7711 59.9235 26.8119C59.9235 23.8526 57.5246 21.4536 54.5653 21.4536C51.606 21.4536 49.207 23.8526 49.207 26.8119C49.207 29.7711 51.606 32.1701 54.5653 32.1701Z" stroke="#9083D5" stroke-width="2" stroke-linecap="round" stroke-linejoin="round"/>
  </g>
  <defs>
    <clipPath id="clip0_1096_395">
      <rect width="64.2991" height="64.2991" fill="white" transform="translate(0.984375 0.0205078)"/>
    </clipPath>
  </defs>
</svg>