<svg xmlns="http://www.w3.org/2000/svg" width="65" height="65" viewBox="0 0 65 65" fill="none">
  <g clip-path="url(#clip0_385_4089)">
    <path d="M28.5003 36.1498C28.1703 33.1815 27.8295 30.1146 27.8295 27.1893C27.8295 21.8529 27.8295 7.68018 18.0825 7.68018C7.15243 7.68018 0.180795 33.7666 0.180795 47.3905C0.16585 49.4009 0.253633 59.6065 3.59917 62.9798C4.45641 63.8434 5.5044 64.3021 6.63176 64.3021C8.99775 64.3021 10.2516 63.3377 11.5781 62.3196C13.0247 61.2052 15.0093 59.6835 20.1057 58.2133C30.6156 55.1852 29.4926 45.0717 28.5003 36.1498ZM18.9226 54.0944C13.0439 55.7897 10.5922 57.6734 8.96987 58.9208C7.84264 59.7889 7.52328 60.0074 6.69594 60.0182C5.50226 59.2359 4.42639 53.1709 4.46922 47.4078C4.46922 31.84 12.1031 11.9666 18.0846 11.9666C21.8094 11.9666 23.5453 16.8037 23.5453 27.1916C23.5453 30.3527 23.899 33.5417 24.2418 36.6235C25.3392 46.4862 25.6328 52.1613 18.9226 54.0944Z" fill="#9083D5"/>
    <path d="M63.4789 47.4163L63.4789 47.4077C63.4789 40.7149 61.7608 30.9025 58.6912 22.7813C57.1563 18.7205 55.3068 15.1458 53.2129 12.605C51.1103 10.0536 48.8798 8.68018 46.5751 8.68018C44.4144 8.68018 42.8452 9.45313 41.6603 10.6744C40.4477 11.9241 39.5955 13.6899 39.0108 15.7111C37.8384 19.7642 37.8324 24.5011 37.8324 27.187C37.8324 30.1726 37.486 33.2879 37.1579 36.239L37.1555 36.2602L37.1555 36.2602C36.6543 40.7659 36.1564 45.3438 37.0205 49.1695C37.4468 51.0565 38.1971 52.7159 39.4141 54.0735C40.6277 55.4273 42.3556 56.5374 44.8291 57.2504L44.8294 57.2505C50.0725 58.7637 52.1677 60.3545 53.691 61.5246C54.9995 62.5275 56.0226 63.3022 58.0325 63.3022C58.8673 63.3022 59.6639 62.9696 60.3507 62.2779L63.4789 47.4163ZM63.4789 47.4163C63.4873 48.3933 63.469 51.3893 63.0399 54.5433M63.4789 47.4163L63.0399 54.5433M63.0399 54.5433C62.8252 56.1207 62.5113 57.7105 62.0582 59.095M63.0399 54.5433L62.0582 59.095M62.0582 59.095C61.5996 60.4962 61.0275 61.5953 60.3511 62.2775L62.0582 59.095ZM57.9573 61.0158L58.2637 61.0198L58.5197 60.8514C58.8635 60.6253 59.1062 60.2845 59.2798 59.9799C59.464 59.6568 59.6271 59.272 59.773 58.854C60.0654 58.0164 60.3218 56.9484 60.5332 55.7535C60.9567 53.3599 61.2184 50.3493 61.1945 47.4207C61.1938 39.4899 59.2556 30.5061 56.5623 23.4946C55.2159 19.9893 53.6622 16.928 52.0324 14.7229C51.2177 13.6206 50.3603 12.6999 49.4715 12.047C48.5843 11.3954 47.6069 10.9686 46.577 10.9686C45.7654 10.9686 44.746 11.1133 43.7601 11.881C42.7962 12.6315 41.9838 13.8848 41.3574 15.8481L41.3573 15.8485C40.2366 19.3661 40.1185 24.0686 40.1185 27.1893C40.1185 30.2879 39.7722 33.422 39.4282 36.5128L39.4282 36.5128C38.8849 41.396 38.5067 45.4582 39.1764 48.5435C39.5188 50.1208 40.1438 51.498 41.1949 52.6183C42.2449 53.7374 43.6568 54.5327 45.462 55.0529C51.1553 56.696 53.5029 58.4985 55.0607 59.6946L55.083 59.7118L55.0838 59.7124C55.6223 60.125 56.0643 60.4628 56.4889 60.6786C56.9808 60.9286 57.4271 61.009 57.9573 61.0158Z" fill="#9083D5" stroke="#9083D5" stroke-width="2"/>
    <path d="M33.4012 23.3753L33.4015 23.3762C34.0921 25.1933 34.8968 26.2442 35.723 26.8246C36.5804 27.427 37.3374 27.4328 37.6646 27.4328C38.297 27.4328 38.8079 27.9445 38.8079 28.5759C38.8079 29.2073 38.2969 29.7191 37.6646 29.7191C36.3129 29.7191 34.606 29.2851 33.1006 27.4791L32.3325 26.5575L31.5643 27.4791C30.0589 29.2853 28.352 29.7191 27.0025 29.7191C26.3718 29.7191 25.8594 29.2067 25.8594 28.5759C25.8594 27.9452 26.3717 27.4328 27.0025 27.4328C27.3292 27.4328 28.0855 27.4268 28.9428 26.8241C29.7687 26.2435 30.5738 25.1925 31.2655 23.3744L31.266 23.3731C31.4327 22.9328 31.8581 22.6387 32.3346 22.6387C32.8082 22.6387 33.2333 22.9322 33.4012 23.3753ZM37.6646 26.4328C37.1611 26.4328 35.633 26.4328 34.3363 23.021L30.3308 23.0188C29.032 26.4328 27.504 26.4328 27.0025 26.4328C25.8195 26.4328 24.8594 27.3929 24.8594 28.5759C24.8594 29.7589 25.8195 30.7191 27.0025 30.7191C28.3872 30.7191 30.0878 30.3205 31.6437 28.8537C31.6172 28.8227 31.5907 28.7913 31.5643 28.7597L32.3325 28.1194L33.1006 28.7597C33.0743 28.7913 33.0478 28.8227 33.0213 28.8537C34.5772 30.3204 36.2781 30.7191 37.6646 30.7191C38.8498 30.7191 39.8079 29.759 39.8079 28.5759C39.8079 27.3928 38.8498 26.4328 37.6646 26.4328Z" fill="#9083D5" stroke="#9083D5" stroke-width="2"/>
    <path d="M31.1875 2.18117C31.1875 1.55053 31.6999 1.03809 32.3307 1.03809C32.9614 1.03809 33.4738 1.55046 33.4738 2.18117V24.1806C33.4738 24.8115 32.9614 25.3238 32.3307 25.3238C31.6999 25.3238 31.1875 24.8114 31.1875 24.1806V2.18117Z" fill="#9083D5" stroke="#9083D5" stroke-width="2"/>
  </g>
  <defs>
    <clipPath id="clip0_385_4089">
      <rect width="64.2991" height="64.2991" fill="white" transform="translate(0.179688 0.0205078)"/>
    </clipPath>
  </defs>
</svg>