<svg xmlns="http://www.w3.org/2000/svg" width="66" height="65" viewBox="0 0 66 65" fill="none">
  <g clip-path="url(#clip0_380_1052)">
    <path d="M16.8929 50.9239C21.3318 50.9239 24.9302 47.3254 24.9302 42.8865C24.9302 38.4476 21.3318 34.8491 16.8929 34.8491C12.4539 34.8491 8.85547 38.4476 8.85547 42.8865C8.85547 47.3254 12.4539 50.9239 16.8929 50.9239Z" stroke="#9083D5" stroke-width="2" stroke-linecap="round" stroke-linejoin="round"/>
    <path d="M43.6825 56.2824C46.6418 56.2824 49.0407 53.8835 49.0407 50.9242C49.0407 47.9649 46.6418 45.5659 43.6825 45.5659C40.7232 45.5659 38.3242 47.9649 38.3242 50.9242C38.3242 53.8835 40.7232 56.2824 43.6825 56.2824Z" stroke="#9083D5" stroke-width="2" stroke-linecap="round" stroke-linejoin="round"/>
    <path d="M39.6655 32.1703C46.3238 32.1703 51.7215 26.7726 51.7215 20.1142C51.7215 13.4558 46.3238 8.05811 39.6655 8.05811C33.0071 8.05811 27.6094 13.4558 27.6094 20.1142C27.6094 26.7726 33.0071 32.1703 39.6655 32.1703Z" stroke="#9083D5" stroke-width="2" stroke-linecap="round" stroke-linejoin="round"/>
  </g>
  <defs>
    <clipPath id="clip0_380_1052">
      <rect width="64.2991" height="64.2991" fill="white" transform="translate(0.816406 0.0205078)"/>
    </clipPath>
  </defs>
</svg>