<svg xmlns="http://www.w3.org/2000/svg" width="65" height="66" viewBox="0 0 65 66" fill="none">
  <g clip-path="url(#clip0_385_4161)">
    <path d="M63.8693 14.5138L50.6496 1.26824C49.9256 0.542749 48.7512 0.542749 48.0266 1.26824C47.302 1.99422 47.302 3.17092 48.0266 3.89641L50.0198 5.89396L38.8727 17.0628L32.4728 10.6504C31.7487 9.92494 30.5743 9.92494 29.8498 10.6504C29.1252 11.3764 29.1252 12.5531 29.8498 13.2786L32.9447 16.3796L14.8194 34.5409C13.7681 35.5937 13.1892 36.9941 13.1892 38.4829C13.1892 39.1076 13.2923 39.7157 13.488 40.2898L9.56545 44.2195C7.87841 45.9103 7.87841 48.6614 9.56545 50.3522L10.9121 51.701L0.656335 61.9767C-0.0677366 62.7022 -0.0677366 63.8789 0.656335 64.6049C1.01886 64.9676 1.49324 65.149 1.9681 65.149C2.44248 65.149 2.91734 64.9676 3.27938 64.6044L13.5351 54.3291L14.8812 55.6779C15.725 56.5233 16.8331 56.946 17.9413 56.946C19.05 56.946 20.1582 56.5233 21.002 55.6779L24.924 51.7481C25.497 51.9438 26.1038 52.047 26.7273 52.047C28.2132 52.047 29.6109 51.467 30.6616 50.4141L48.787 32.2534L51.8819 35.3544C52.2445 35.7171 52.7188 35.899 53.1937 35.899C53.6681 35.899 54.1429 35.7176 54.505 35.3544C55.2295 34.6284 55.2295 33.4522 54.505 32.7262L48.1051 26.3138L59.2526 15.1449L61.2458 17.142C61.6078 17.5047 62.0827 17.6866 62.5571 17.6866C63.0319 17.6866 63.5068 17.5052 63.8688 17.142C64.5934 16.416 64.5934 15.2398 63.8693 14.5138ZM18.3789 53.0497C18.2214 53.2075 18.0375 53.2311 17.9418 53.2311C17.8462 53.2311 17.6622 53.2075 17.5047 53.0497L12.189 47.724C11.9476 47.4822 11.9476 47.0895 12.189 46.8477L15.7107 43.319L21.9007 49.521L18.3789 53.0497ZM28.0386 47.786C27.3155 48.5105 26.1396 48.511 25.416 47.7865L17.4424 39.7972C17.0917 39.4463 16.8989 38.9794 16.8989 38.4829C16.8989 37.9865 17.0917 37.52 17.4424 37.1691L22.3481 32.2534L25.443 35.3544C25.8051 35.7171 26.2799 35.899 26.7548 35.899C27.2292 35.899 27.704 35.7171 28.0661 35.3544C28.7901 34.6289 28.7901 33.4522 28.0661 32.7262L24.9711 29.6252L28.9579 25.6306L32.0529 28.7316C32.4149 29.0943 32.8898 29.2762 33.3642 29.2762C33.839 29.2762 34.3139 29.0948 34.6759 28.7316C35.4 28.0061 35.4 26.8294 34.6759 26.1034L31.581 23.0024L35.5673 19.0078L46.1639 29.6252L28.0386 47.786ZM45.4825 23.6856L41.4957 19.691L52.6428 8.52213L56.6296 12.5167L45.4825 23.6856Z" fill="#9083D5"/>
  </g>
  <defs>
    <clipPath id="clip0_385_4161">
      <rect width="64.2991" height="64.2991" fill="white" transform="translate(0.113281 0.787109)"/>
    </clipPath>
  </defs>
</svg>